Patient4_TMGait_0pt6_01_right_43_EMG.mot
version=1
nRows=26
nColumns=33
inDegrees=no
endheader
time	1LAddLong	2LGlutMax	3LGlutMed	4LIliopsoas	5LSemiMemb	6LBicFemLong	7LRecFem	8LVastMed	9LVastLat	10LGasMed	11LTibAnt	12lTibPost	13LPeroneusLong	14LSol	15LExtDigLong	16LFlexDigLong	17RAddLong	18RGlutMax	19RGlutMed	20RIliopsoas	21RSemiMemb	22RBicFemLong	23RRecFem	24RVastMed	25RVastLat	26RGasMed	27RTibAnt	28RTibPost	29RPeroneusLong	30RSol	31RExtDigLong	32RFlexDigLong
52.98	0.005341	-0.077667	-0.042419	0.018921	0.033875	-0.016479	0.14008	-0.015106	0.000916	0.037384	-0.041046	0.009155	-0.53665	-0.35339	0.14801	-0.007935	0.046539	-0.12894	-0.056763	0.17777	-0.16342	-0.24307	0.12726	-0.064087	0.029144	0.020447	-0.084686	-0.001373	-0.34698	-0.10574	0.005188	-0.000916
52.981	0.000153	-0.049133	-0.098267	0.027008	0.036163	0.095367	0.1239	-0.003662	-0.002136	0.047607	-0.013123	0.007477	-0.49667	-0.15442	0.15213	0.000305	0.020142	-0.1001	-0.12482	0.14923	-0.34668	-0.19989	0.055847	-0.09964	0.041199	0.018921	-0.21637	-0.003204	-0.29831	-0.14297	-0.007629	-0.005341
52.982	0.000458	-0.040741	-0.15701	0.005646	0.030212	0.003204	0.13962	0.006409	0.009155	0.052338	-0.018158	0.010986	-0.085297	-0.072784	0.13153	-0.011749	0.025787	-0.061188	0.069733	0.07782	-0.16159	-0.085907	0.06134	-0.12863	0.019073	0.008698	0.29053	-0.002289	-0.30319	-0.22903	0.000763	-0.011444
52.983	-0.013123	-0.055542	-0.18082	0.016937	0.021515	-0.015564	0.21469	0.002899	0.0354	0.043335	0.010071	0.00473	-0.056763	0.11978	0.14236	-0.010681	0.01709	-0.006409	0.30823	0.012817	0.042725	0.053101	0.063019	-0.11597	0.024109	-0.002136	0.625	0.001678	-0.23239	-0.18784	0.000458	-0.005798
52.984	0.008698	-0.025787	-0.10254	0.013275	0.022125	0.050659	0.27817	0.000458	-0.019379	-0.016785	0.17578	0.008392	0.65109	0.3714	0.11292	-0.002441	0.019989	-0.048218	0.38742	0.001984	-0.031738	0.10513	0.03479	-0.1149	0.020599	0.003204	0.44754	-0.001984	0.45807	-0.23529	0.00061	0.00412
52.985	-0.024719	-0.039368	-0.036621	-0.000916	0.018005	0.039368	0.28397	0.002289	-0.073395	-0.13687	0.30914	0.009308	0.80978	0.54184	0.05249	-0.003967	0.021057	-0.1445	0.26443	0.001526	0.037231	0.19669	-0.014191	-0.094604	0.007019	0.012207	0.028687	0.00061	0.61554	-0.35996	-0.001678	0.006409
52.986	0.013733	-0.096893	0.020142	0.011292	0.028534	-0.2063	0.18662	-0.009918	-0.066223	-0.16647	0.14114	0.00473	0.34347	0.68497	0.14084	0.01236	-0.001984	-0.13931	-0.066376	0.017242	0.056152	0.12116	-0.032501	-0.082397	0.029144	0.021667	-0.30838	-0.001831	0.44769	-0.29068	-0.000458	0.005798
52.987	0.010681	-0.112	0.06897	0.006104	0.02655	-0.23438	0.1236	-0.01709	-0.08728	-0.10223	0.098724	0.011749	-0.5249	0.56717	0.061035	0.000305	0.007019	-0.13382	-0.19318	0.045319	0.11459	0.26062	-0.032196	-0.097046	0.02594	0.014191	-0.56839	-0.007019	-0.21027	-0.093079	0.000153	0.00473
52.988	-0.000153	-0.10559	0.064087	-0.004578	0.035095	-0.049438	0.058441	-0.012207	-0.1149	-0.054626	0.024109	-0.005035	-1.272	0.42404	0.32944	0.007324	-0.002441	-0.11856	0.021057	0.047302	0.11459	0.24567	0.007629	-0.097656	0.050812	0.004883	-0.39337	-0.013733	-0.047913	0.17029	-0.002747	-0.000916
52.989	0.001831	-0.045471	0.050659	-0.017548	0.0354	0.024261	-0.052338	-0.003815	-0.10925	-0.064697	-0.13931	0.002441	-0.32425	0.35248	-0.45746	0.000763	-0.054779	-0.088043	-0.013885	0.048981	0.17761	0.086365	0.061035	-0.007782	0.037384	0.00061	-0.048218	-0.016479	0.013275	0.34988	0.001831	-0.00473
52.99	0.012054	-0.025177	-0.011597	-0.026245	0.036621	-0.090332	-0.070343	-0.00946	-0.056458	-0.054016	-0.21149	0.00412	0.07431	0.27023	-0.26962	-0.001526	-0.062408	-0.10223	-0.054474	0.03952	0.12299	0.12741	0.059204	-0.012054	0.045471	0.001984	0.018616	-0.019379	-0.074005	0.21011	-0.002747	-0.00473
52.991	0.009308	-0.009003	-0.080719	-0.033875	0.037537	-0.13367	0.005951	-0.009766	-0.074768	-0.001526	-0.036011	0.006409	-0.031738	0.24551	0.2626	-0.000153	-0.062103	-0.072021	0.1033	0.076599	-0.092926	0.057068	0.054932	-0.014954	0.050354	-0.020599	-0.28748	-0.037384	0.043793	0.016327	-0.002441	0.012054
52.992	0.012054	-0.054016	-0.011444	-0.014648	0.045166	0.001678	-0.035248	-0.006561	-0.098114	0.016479	-0.002136	0.002289	0.081024	0.30899	-0.39841	0.000305	-0.03006	-0.022125	0.098724	0.10941	-0.055847	0.055084	0.13412	-0.038605	0.041809	-0.024109	-0.2562	-0.016174	0.12878	-0.039825	-0.001831	0.001984
52.993	0.011749	-0.066071	-0.099945	-0.021973	0.037384	0.04425	-0.034637	-0.010986	-0.020447	0.063477	0.05249	0.007477	-0.048218	0.17166	-0.38864	-0.00061	-0.024261	-0.10101	0.037537	0.009918	-0.030518	0.056763	0.17075	-0.077362	0.005646	-0.021515	-0.054321	0.058899	-0.010986	-0.014191	-0.006561	0.001221
52.994	0.005035	-0.084534	-0.066223	-0.028992	0.028381	0.026093	0.088501	-0.011749	-0.027466	0.15656	0.13992	0.008545	-0.54138	0.103	0.11108	0.000305	-0.035248	-0.14984	0.11856	-0.093689	-0.14938	0.034637	0.14236	-0.11215	-0.00351	0.005493	0.046387	-0.004425	-0.075378	-0.040131	-0.002441	0.000458
52.995	0.000305	-0.080109	-0.042572	0.005188	0.029449	0.02121	0.038452	-0.003357	-0.033569	0.17532	0.044556	0.01236	0.14648	0.096893	0.021057	0.014801	-0.025787	-0.093536	0.016937	-0.15091	-0.21149	-0.04837	0.13214	-0.11581	-0.018311	0.059967	0.086823	-0.013275	-0.016022	0.009003	-0.003052	0.001068
52.996	0.00885	-0.063934	-0.021667	0.017853	0.026245	0.036621	0.027008	0.011139	-0.008545	0.13977	-0.094604	0.009918	0.021973	0.092621	-0.028534	0.007324	-0.023346	-0.001221	-0.14694	-0.088348	-0.10407	-0.055847	0.047913	-0.056305	-0.012207	0.037079	0.079193	0.012207	-0.13336	0.017853	-0.003815	-0.004425
52.997	0.002747	-0.049896	-0.048218	0.020447	0.027466	0.037079	0.084381	0.017548	-0.026398	0.11002	-0.39429	0.007019	-0.20706	0.11337	-0.16235	0.008392	-0.012512	-0.019073	-0.37872	-0.031433	-0.020752	-0.066071	-0.011292	-0.020294	-0.00473	0.024261	0.06424	0.007324	-0.27924	-0.00061	-0.005951	-0.01358
52.998	0.006104	-0.054474	-0.095673	0.001221	0.019989	0.079651	0.11337	0.031433	-0.041504	0.12375	-0.17593	0.006561	-0.17792	0.12161	0.20187	0.009308	-0.022278	-0.040436	-0.36972	-0.014801	-0.004883	-0.030212	-0.093689	-0.01236	-0.002289	0.023651	0.060425	-0.014343	-0.16998	-0.034485	-0.004272	-0.002899
52.999	-0.006561	-0.045319	-0.20508	-0.011292	0.017853	0.080414	0.10635	0.020447	-0.085449	0.023956	-0.14908	-0.000763	0.40283	-0.027466	-0.24185	0.00412	-0.009613	-0.057526	0.14511	0.009155	0.19363	0.069275	-0.18997	-0.030975	-0.003967	0.021973	0.18601	-0.011597	-0.10132	-0.098877	0.000916	-0.010376
53	-0.004578	-0.037079	-0.24597	-0.002136	0.013123	0.079498	0.14832	0.017853	-0.13702	-0.103	-0.22293	0.007629	1.0225	-0.25513	-0.11353	0.00473	-0.006714	-0.014343	0.42541	-0.007019	0.090485	0.051117	-0.13687	-0.037537	-0.008545	0.017242	0.4335	-0.008545	-0.011444	-0.096741	-0.005493	-0.009155
53.001	-0.005798	-0.050049	-0.22934	0.001221	0.027771	0.11612	0.23086	-0.002899	-0.089417	-0.15656	-0.048218	0.007019	0.50354	-0.097046	-0.28656	0.009613	0.036011	-0.079803	0.44571	-0.009155	0.1294	-0.10559	-0.082092	-0.10819	0.009613	0.009003	0.57159	-0.011444	-0.060883	-0.10712	-0.004272	-0.01358
53.002	0.000763	-0.003815	-0.071259	-0.001068	0.031891	0.11643	0.2095	-0.007629	-0.046539	-0.12558	0.088959	0.005035	-0.81467	0.11185	-0.093994	0.013428	0.066833	-0.039063	0.34256	-0.037384	0.15015	-0.24567	-0.13626	-0.12436	0.060883	0.001984	0.62317	-0.007935	0.054779	-0.16586	-0.002136	-0.009613
53.003	0.002136	-0.02121	-0.001221	0.006104	0.037079	-0.037842	0.06958	0.00473	-0.005188	-0.09903	0.046844	0.008087	-0.88303	0.10803	0.080719	-0.001678	0.080109	-0.022736	0.071869	-0.13412	0.14847	-0.2562	-0.17349	-0.1915	0.066376	0.011139	0.64194	-0.011139	0.1506	-0.23575	-0.005951	0.001068
53.004	0.00946	-0.019379	0.18433	0.005493	0.032043	0.011902	0.040588	0.001526	-0.008545	-0.070953	-0.03067	0.01358	0.30106	0.2034	0.011749	-0.002594	-0.028687	-0.081024	0.30228	-0.20569	-0.054779	-0.10864	-0.24323	-0.14145	0.069885	0.02243	-0.33524	-0.007477	0.26718	-0.23544	-0.003357	-0.002747
53.005	-0.007477	-0.037079	0.13565	-0.00351	0.036926	-0.06012	0.057983	-0.013275	-0.067749	-0.008087	-0.010529	0.002441	0.64072	0.18768	0.090637	-0.014801	-0.088959	-0.11002	0.29709	-0.17578	-0.14847	0.089722	-0.25131	-0.11841	0.062866	0.014648	-0.22308	-0.008392	0.23163	-0.21973	0.004272	0.001526
